<svg width="20" height="20" viewBox="0 0 20 20" fill="none" xmlns="http://www.w3.org/2000/svg">
<path d="M2.64428 5.97631C3.34744 5.27315 4.35925 5.07642 6.04446 5.02138L7.2947 5.00156C7.62089 5 7.96701 5 8.33464 5H11.668C12.0356 5 12.3817 5 12.7079 5.00156L13.9581 5.02138C15.6434 5.07642 16.6552 5.27315 17.3583 5.97631C18.3346 6.95262 18.3346 8.52397 18.3346 11.6667C18.3346 14.8094 18.3346 16.3807 17.3583 17.357C16.382 18.3333 14.8107 18.3333 11.668 18.3333H11.668H8.33462H8.33461C5.19193 18.3333 3.62059 18.3333 2.64428 17.357C1.66797 16.3807 1.66797 14.8094 1.66797 11.6667C1.66797 8.52397 1.66797 6.95262 2.64428 5.97631Z" fill="#526077" fill-opacity="0.5" stroke="#526077" stroke-width="1.2"/>
<path d="M10.6237 8.33325C10.6237 7.98807 10.3439 7.70825 9.9987 7.70825C9.65352 7.70825 9.3737 7.98807 9.3737 8.33325V8.34178C8.46638 8.57037 7.70703 9.28575 7.70703 10.2777C7.70703 11.4918 8.84458 12.2916 9.9987 12.2916C10.6855 12.2916 11.0404 12.7354 11.0404 13.0555C11.0404 13.3755 10.6855 13.8194 9.9987 13.8194C9.31186 13.8194 8.95703 13.3755 8.95703 13.0555C8.95703 12.7103 8.67721 12.4305 8.33203 12.4305C7.98685 12.4305 7.70703 12.7103 7.70703 13.0555C7.70703 14.0474 8.46638 14.7628 9.3737 14.9914V14.9999C9.3737 15.3451 9.65352 15.6249 9.9987 15.6249C10.3439 15.6249 10.6237 15.3451 10.6237 14.9999V14.9914C11.531 14.7628 12.2904 14.0474 12.2904 13.0555C12.2904 11.8414 11.1528 11.0416 9.9987 11.0416C9.31186 11.0416 8.95703 10.5977 8.95703 10.2777C8.95703 9.95767 9.31186 9.51381 9.9987 9.51381C10.6855 9.51381 11.0404 9.95767 11.0404 10.2777C11.0404 10.6229 11.3202 10.9027 11.6654 10.9027C12.0105 10.9027 12.2904 10.6229 12.2904 10.2777C12.2904 9.28575 11.531 8.57037 10.6237 8.34178V8.33325Z" fill="#526077"/>
<path d="M10.0431 1.04175H9.95648C9.20776 1.04173 8.58339 1.04171 8.08774 1.10834C7.56458 1.17868 7.09225 1.33341 6.71269 1.71296C6.33313 2.09252 6.17841 2.56486 6.10807 3.08802C6.0603 3.44332 6.04678 4.29298 6.04297 5.02146L7.29321 5.00165C7.29698 4.29611 7.30898 3.53681 7.34692 3.25458C7.39862 2.87003 7.48798 2.70545 7.59657 2.59685C7.70517 2.48825 7.86975 2.3989 8.2543 2.3472C8.65683 2.29308 9.19647 2.29175 9.99981 2.29175C10.8032 2.29175 11.3428 2.29308 11.7453 2.3472C12.1299 2.3989 12.2944 2.48825 12.403 2.59685C12.5116 2.70545 12.601 2.87003 12.6527 3.25458C12.6906 3.53681 12.7026 4.29611 12.7064 5.00165L13.9567 5.02146C13.9528 4.29298 13.9393 3.44332 13.8915 3.08802C13.8212 2.56486 13.6665 2.09252 13.2869 1.71296C12.9074 1.33341 12.435 1.17868 11.9119 1.10834C11.4162 1.04171 10.7919 1.04173 10.0431 1.04175Z" fill="#526077"/>
</svg>
