<svg width="20" height="20" viewBox="0 0 20 20" fill="none" xmlns="http://www.w3.org/2000/svg">
<path fill-rule="evenodd" clip-rule="evenodd" d="M18.3346 10.0001C18.3346 14.6025 14.6037 18.3334 10.0013 18.3334C5.39893 18.3334 1.66797 14.6025 1.66797 10.0001C1.66797 5.39771 5.39893 1.66675 10.0013 1.66675C14.6037 1.66675 18.3346 5.39771 18.3346 10.0001Z" fill="#526077" fill-opacity="0.5" stroke="#526077" stroke-width="1.2"/>
<path d="M10.625 5C10.625 4.65482 10.3452 4.375 10 4.375C9.65482 4.375 9.375 4.65482 9.375 5V5.26395C8.01631 5.50722 6.875 6.52801 6.875 7.91667C6.875 9.5143 8.38565 10.625 10 10.625C11.1471 10.625 11.875 11.3798 11.875 12.0833C11.875 12.7869 11.1471 13.5417 10 13.5417C8.85293 13.5417 8.125 12.7869 8.125 12.0833C8.125 11.7382 7.84518 11.4583 7.5 11.4583C7.15482 11.4583 6.875 11.7382 6.875 12.0833C6.875 13.472 8.01631 14.4928 9.375 14.7361V15C9.375 15.3452 9.65482 15.625 10 15.625C10.3452 15.625 10.625 15.3452 10.625 15V14.7361C11.9837 14.4928 13.125 13.472 13.125 12.0833C13.125 10.4857 11.6144 9.375 10 9.375C8.85293 9.375 8.125 8.62022 8.125 7.91667C8.125 7.21311 8.85293 6.45833 10 6.45833C11.1471 6.45833 11.875 7.21311 11.875 7.91667C11.875 8.26184 12.1548 8.54167 12.5 8.54167C12.8452 8.54167 13.125 8.26184 13.125 7.91667C13.125 6.52801 11.9837 5.50722 10.625 5.26395V5Z" fill="#526077"/>
</svg>
