<svg width="20" height="20" viewBox="0 0 20 20" fill="none" xmlns="http://www.w3.org/2000/svg">
<path d="M7.99495 2.66699C7.79203 2.83992 7.69055 2.9264 7.58219 2.99903C7.33377 3.16553 7.05478 3.28109 6.76139 3.33902C6.63339 3.36429 6.5005 3.37489 6.2347 3.3961L6.23469 3.3961C5.56688 3.4494 5.23297 3.47604 4.95439 3.57444C4.31006 3.80202 3.80324 4.30884 3.57566 4.95317C3.47726 5.23175 3.45062 5.56566 3.39732 6.23347L3.39732 6.23348C3.37611 6.49928 3.36551 6.63217 3.34024 6.76016C3.28231 7.05356 3.16675 7.33255 3.00025 7.58097C2.92762 7.68933 2.84115 7.7908 2.66821 7.99373L2.6682 7.99375C2.23366 8.50365 2.01639 8.75861 1.88898 9.02517C1.5943 9.64171 1.5943 10.3585 1.88898 10.975C2.01639 11.2416 2.23366 11.4965 2.66819 12.0064L2.6682 12.0064L2.66822 12.0064C2.84113 12.2093 2.92762 12.3108 3.00025 12.4192C3.16675 12.6676 3.28231 12.9466 3.34024 13.24C3.36551 13.368 3.37611 13.5009 3.39732 13.7667L3.39732 13.7667C3.45062 14.4345 3.47726 14.7684 3.57566 15.047C3.80324 15.6913 4.31006 16.1981 4.95439 16.4257C5.23297 16.5241 5.56687 16.5508 6.23466 16.6041L6.2347 16.6041C6.5005 16.6253 6.63339 16.6359 6.76139 16.6611C7.05478 16.7191 7.33377 16.8346 7.58219 17.0011C7.69056 17.0738 7.79203 17.1602 7.99497 17.3332C8.50488 17.7677 8.75983 17.985 9.02639 18.1124C9.64293 18.4071 10.3597 18.4071 10.9762 18.1124C11.2428 17.985 11.4977 17.7677 12.0076 17.3332C12.2106 17.1602 12.312 17.0738 12.4204 17.0011C12.6688 16.8346 12.9478 16.7191 13.2412 16.6611C13.3692 16.6359 13.5021 16.6253 13.7679 16.6041L13.7679 16.6041C14.4357 16.5508 14.7696 16.5241 15.0482 16.4257C15.6925 16.1981 16.1994 15.6913 16.4269 15.047C16.5253 14.7684 16.552 14.4345 16.6053 13.7667L16.6053 13.7667C16.6265 13.5009 16.6371 13.368 16.6624 13.24C16.7203 12.9466 16.8358 12.6676 17.0024 12.4192C17.075 12.3108 17.1615 12.2094 17.3344 12.0064C17.7689 11.4965 17.9862 11.2416 18.1136 10.975C18.4083 10.3585 18.4083 9.64171 18.1136 9.02517C17.9862 8.75861 17.7689 8.50366 17.3344 7.99375L17.3344 7.99375C17.1615 7.79081 17.075 7.68934 17.0024 7.58097C16.8358 7.33255 16.7203 7.05356 16.6624 6.76017C16.6371 6.63217 16.6265 6.49928 16.6053 6.23348L16.6053 6.23344C16.552 5.56565 16.5253 5.23174 16.4269 4.95317C16.1994 4.30884 15.6925 3.80202 15.0482 3.57444C14.7696 3.47604 14.4357 3.4494 13.7679 3.3961L13.7679 3.3961C13.5021 3.37489 13.3692 3.36429 13.2412 3.33902C12.9478 3.28109 12.6688 3.16553 12.4204 2.99903C12.312 2.92639 12.2106 2.83992 12.0076 2.66697L12.0076 2.66697C11.4977 2.23244 11.2428 2.01517 10.9762 1.88776C10.3597 1.59308 9.64293 1.59308 9.02639 1.88776C8.75983 2.01517 8.50487 2.23244 7.99497 2.66697L7.99495 2.66699Z" fill="#526077" fill-opacity="0.5" stroke="#526077" stroke-width="1.2"/>
<path d="M13.1929 6.80826C13.4578 7.07312 13.4578 7.50255 13.1929 7.76741L7.76716 13.1931C7.5023 13.458 7.07288 13.458 6.80802 13.1931C6.54316 12.9283 6.54316 12.4989 6.80802 12.234L12.2338 6.80826C12.4986 6.5434 12.928 6.5434 13.1929 6.80826Z" fill="#526077"/>
<path d="M13.1655 12.2614C13.1655 12.7608 12.7606 13.1657 12.2612 13.1657C11.7618 13.1657 11.3569 12.7608 11.3569 12.2614C11.3569 11.762 11.7618 11.3571 12.2612 11.3571C12.7606 11.3571 13.1655 11.762 13.1655 12.2614Z" fill="#526077"/>
<path d="M7.73974 8.64427C8.23916 8.64427 8.64402 8.23941 8.64402 7.73998C8.64402 7.24056 8.23916 6.83569 7.73974 6.83569C7.24031 6.83569 6.83545 7.24056 6.83545 7.73998C6.83545 8.23941 7.24031 8.64427 7.73974 8.64427Z" fill="#526077"/>
</svg>
