<svg width="80" height="80" viewBox="0 0 80 80" fill="none" xmlns="http://www.w3.org/2000/svg">
<rect width="80" height="80" rx="40" fill="#D7F4E2"/>
<path d="M28.2301 33.5621C29.3551 32.437 30.974 32.1223 33.6704 32.0342L35.6707 32.0025C36.1926 32 36.7464 32 37.3346 32H42.668C43.2562 32 43.81 32 44.3319 32.0025L46.3323 32.0342C49.0286 32.1223 50.6475 32.437 51.7725 33.5621C53.3346 35.1242 53.3346 37.6384 53.3346 42.6667C53.3346 47.695 53.3346 50.2091 51.7725 51.7712C50.2104 53.3333 47.6963 53.3333 42.668 53.3333H42.668H37.3346H37.3346C32.3063 53.3333 29.7922 53.3333 28.2301 51.7712C26.668 50.2091 26.668 47.695 26.668 42.6667C26.668 37.6384 26.668 35.1242 28.2301 33.5621Z" fill="#41B27C" fill-opacity="0.5" stroke="#41B27C" stroke-width="2"/>
<path d="M40.9987 37.3333C40.9987 36.781 40.551 36.3333 39.9987 36.3333C39.4464 36.3333 38.9987 36.781 38.9987 37.3333V37.3469C37.547 37.7126 36.332 38.8573 36.332 40.4444C36.332 42.3869 38.1521 43.6666 39.9987 43.6666C41.0976 43.6666 41.6654 44.3768 41.6654 44.8888C41.6654 45.4009 41.0976 46.111 39.9987 46.111C38.8998 46.111 38.332 45.4009 38.332 44.8888C38.332 44.3365 37.8843 43.8888 37.332 43.8888C36.7797 43.8888 36.332 44.3365 36.332 44.8888C36.332 46.4759 37.547 47.6205 38.9987 47.9863V47.9999C38.9987 48.5522 39.4464 48.9999 39.9987 48.9999C40.551 48.9999 40.9987 48.5522 40.9987 47.9999V47.9863C42.4504 47.6205 43.6654 46.4759 43.6654 44.8888C43.6654 42.9463 41.8453 41.6666 39.9987 41.6666C38.8998 41.6666 38.332 40.9564 38.332 40.4444C38.332 39.9323 38.8998 39.2221 39.9987 39.2221C41.0976 39.2221 41.6654 39.9323 41.6654 40.4444C41.6654 40.9966 42.1131 41.4444 42.6654 41.4444C43.2176 41.4444 43.6654 40.9966 43.6654 40.4444C43.6654 38.8573 42.4504 37.7126 40.9987 37.3469V37.3333Z" fill="#41B27C"/>
<path d="M40.0682 25.6667H39.9296C38.7316 25.6667 37.7326 25.6667 36.9396 25.7733C36.1025 25.8858 35.3468 26.1334 34.7395 26.7407C34.1322 27.348 33.8847 28.1037 33.7721 28.9408C33.6957 29.5093 33.6741 30.8687 33.668 32.0343L35.6683 32.0026C35.6744 30.8737 35.6936 29.6588 35.7543 29.2073C35.837 28.592 35.98 28.3287 36.1537 28.1549C36.3275 27.9812 36.5908 27.8382 37.2061 27.7555C37.8502 27.6689 38.7136 27.6668 39.9989 27.6668C41.2843 27.6668 42.1477 27.6689 42.7917 27.7555C43.407 27.8382 43.6703 27.9812 43.8441 28.1549C44.0178 28.3287 44.1608 28.592 44.2435 29.2073C44.3042 29.6588 44.3234 30.8737 44.3295 32.0026L46.3299 32.0343C46.3238 30.8687 46.3021 29.5093 46.2257 28.9408C46.1132 28.1037 45.8656 27.348 45.2583 26.7407C44.651 26.1334 43.8953 25.8858 43.0582 25.7733C42.2652 25.6667 41.2662 25.6667 40.0682 25.6667Z" fill="#41B27C"/>
</svg>
