<svg width="20" height="20" viewBox="0 0 20 20" fill="none" xmlns="http://www.w3.org/2000/svg">
<path d="M2.5 8.33317C2.5 5.19047 2.5 3.61913 3.47631 2.64281C4.45262 1.6665 6.02397 1.6665 9.16667 1.6665H10.8333C13.976 1.6665 15.5474 1.6665 16.5237 2.64281C17.5 3.61913 17.5 5.19047 17.5 8.33317V11.6665C17.5 14.8092 17.5 16.3805 16.5237 17.3569C15.5474 18.3332 13.976 18.3332 10.8333 18.3332H9.16667C6.02397 18.3332 4.45262 18.3332 3.47631 17.3569C2.5 16.3805 2.5 14.8092 2.5 11.6665V8.33317Z" fill="#526077" fill-opacity="0.5" stroke="#526077" stroke-width="1.2"/>
<path fill-rule="evenodd" clip-rule="evenodd" d="M6.04297 10C6.04297 9.65482 6.32279 9.375 6.66797 9.375H13.3346C13.6798 9.375 13.9596 9.65482 13.9596 10C13.9596 10.3452 13.6798 10.625 13.3346 10.625H6.66797C6.32279 10.625 6.04297 10.3452 6.04297 10Z" fill="#526077"/>
<path fill-rule="evenodd" clip-rule="evenodd" d="M6.04297 6.6665C6.04297 6.32133 6.32279 6.0415 6.66797 6.0415H13.3346C13.6798 6.0415 13.9596 6.32133 13.9596 6.6665C13.9596 7.01168 13.6798 7.2915 13.3346 7.2915H6.66797C6.32279 7.2915 6.04297 7.01168 6.04297 6.6665Z" fill="#526077"/>
<path fill-rule="evenodd" clip-rule="evenodd" d="M6.04297 13.3335C6.04297 12.9883 6.32279 12.7085 6.66797 12.7085H10.8346C11.1798 12.7085 11.4596 12.9883 11.4596 13.3335C11.4596 13.6787 11.1798 13.9585 10.8346 13.9585H6.66797C6.32279 13.9585 6.04297 13.6787 6.04297 13.3335Z" fill="#526077"/>
</svg>
